<svg width="112" height="325" viewBox="0 0 112 325" fill="none" xmlns="http://www.w3.org/2000/svg">
<g id="bottle">
<path id="out" d="M72.1807 1H43.183C42.8745 1.55165 42.0725 2.65496 41.3321 2.65496C40.5918 2.65496 39.7897 4.86158 39.4812 5.96488L41.3321 6.79236V13.9639L36.3964 14.2397V16.7221C37.836 16.906 40.7151 17.9909 40.7151 20.8595C35.1624 26.6519 29.6097 75.4733 29.6097 76.8524C29.6097 77.9557 30.8436 84.2997 31.4606 87.3338L30.8436 91.747C22.0004 100.757 4.06708 120.047 3.07992 125.122C2.09277 130.197 3.49124 137.718 4.31386 140.844C3.79972 189.022 2.77144 287.143 2.77144 294.204C-0.436809 299.279 1.43467 310.846 2.77144 315.994C3.28558 318.569 14.9875 323.773 57.6818 323.993C111.05 324.269 107.348 315.994 108.89 312.409C110.124 309.54 109.405 301.1 108.89 297.238L110.124 138.638C111.667 134.776 110.988 125.232 109.507 121.261C108.89 118.778 85.754 94.2295 82.6692 87.8855C88.0985 82.5896 78.556 38.6044 73.1061 17.2738H78.9673V15.0672L72.1807 12.5847V1Z" fill="#0F2754" stroke="#5243FD"/>
<mask id="mask0" mask-type="alpha" maskUnits="userSpaceOnUse" x="11" y="8" width="91" height="308">
<path id="mask" d="M69.5916 9H46.1299C45.8803 9.52262 45.2314 10.5679 44.6324 10.5679C44.0333 10.5679 43.3844 12.6583 43.1348 13.7036L44.6324 14.4875V21.2816L40.6389 21.5429V23.8947C41.8036 24.0689 44.1332 25.0967 44.1332 27.8143C39.6405 33.3018 35.1478 79.5536 35.1478 80.8602C35.1478 81.9054 36.1462 87.9155 36.6454 90.7899L36.1462 94.9709C28.9912 103.507 14.4815 121.781 13.6828 126.589C12.8842 131.397 14.0156 138.522 14.6812 141.484C14.2652 187.126 13.4333 280.083 13.4333 286.772C10.8375 291.58 12.3517 302.538 13.4333 307.416C13.8492 309.855 23.3171 314.785 57.8608 314.994C101.04 315.255 98.0452 307.416 99.2932 304.019C100.292 301.301 99.7092 293.305 99.2932 289.647L100.292 139.394C101.539 135.735 100.99 126.694 99.7924 122.931C99.2932 120.579 80.5737 97.3227 78.0778 91.3125C82.4706 86.2954 74.7499 44.6252 70.3404 24.4173H75.0827V22.3268L69.5916 19.975V9Z" fill="#C4C4C4" stroke="black"/>
</mask>
<g mask="url(#mask0)">
<path id="liquid" d="M1 17H111V307.893L91.1777 312.991L55.1624 315.196L24.4518 312.991L1 307.893V17Z" fill="#BEFFAE"/>
</g>
</g>
</svg>
